<svg xmlns="http://www.w3.org/2000/svg" viewBox="0 0 128 128" role="img" aria-label="Rice illustration">
  <defs>
    <linearGradient id="stemRice" x1="0" x2="0" y1="0" y2="1">
      <stop offset="0%" stop-color="#6ca13a" />
      <stop offset="100%" stop-color="#3f7826" />
    </linearGradient>
    <linearGradient id="grainRice" x1="0" x2="1" y1="0" y2="1">
      <stop offset="0%" stop-color="#fff7c9" />
      <stop offset="100%" stop-color="#e8d890" />
    </linearGradient>
  </defs>

  <path d="M46 18v90" stroke="url(#stemRice)" stroke-width="6" stroke-linecap="round"/>
  <path d="M82 30v78" stroke="url(#stemRice)" stroke-width="6" stroke-linecap="round"/>

  <g fill="url(#grainRice)">
    <ellipse cx="58" cy="30" rx="8" ry="4.5" transform="rotate(-20 58 30)"/>
    <ellipse cx="64" cy="42" rx="8" ry="4.5" transform="rotate(-20 64 42)"/>
    <ellipse cx="67" cy="55" rx="8" ry="4.5" transform="rotate(-20 67 55)"/>
    <ellipse cx="67" cy="68" rx="8" ry="4.5" transform="rotate(-20 67 68)"/>
    <ellipse cx="64" cy="81" rx="8" ry="4.5" transform="rotate(-20 64 81)"/>

    <ellipse cx="70" cy="38" rx="8" ry="4.5" transform="rotate(18 70 38)"/>
    <ellipse cx="76" cy="50" rx="8" ry="4.5" transform="rotate(18 76 50)"/>
    <ellipse cx="79" cy="63" rx="8" ry="4.5" transform="rotate(18 79 63)"/>
    <ellipse cx="79" cy="76" rx="8" ry="4.5" transform="rotate(18 79 76)"/>
    <ellipse cx="76" cy="89" rx="8" ry="4.5" transform="rotate(18 76 89)"/>
  </g>
</svg>
